<svg width="28" height="20" viewBox="0 0 28 20" fill="none" xmlns="http://www.w3.org/2000/svg">
<path fill-rule="evenodd" clip-rule="evenodd" d="M24.3699 0.5717C25.5494 0.8902 26.4765 1.8197 26.7899 2.9979C27.36 5.136 27.36 9.6 27.36 9.6C27.36 9.6 27.36 14.064 26.7899 16.2022C26.4721 17.3848 25.545 18.3142 24.3699 18.6284C22.2371 19.2 13.68 19.2 13.68 19.2C13.68 19.2 5.1273 19.2 2.9902 18.6284C1.8107 18.3099 0.8836 17.3804 0.5702 16.2022C0 14.064 0 9.6 0 9.6C0 9.6 0 5.136 0.5702 2.9979C0.888 1.8153 1.8151 0.8859 2.9902 0.5717C5.1273 0 13.68 0 13.68 0C13.68 0 22.2371 0 24.3699 0.5717ZM10.5 14.3301L18 10L10.5 5.66987V14.3301Z" fill="white" fill-opacity="0.662745"/>
</svg>
