<svg width="21" height="20" viewBox="0 0 21 20" fill="none" xmlns="http://www.w3.org/2000/svg">
<path d="M5.47869 19.7264V6.76017H1.17278V19.7264H5.47869ZM3.32658 4.99017C4.82788 4.99017 5.76249 3.99447 5.76249 2.75027C5.73439 1.47757 4.82788 0.509766 3.35518 0.509766C1.88148 0.509766 0.918884 1.47756 0.918884 2.75006C0.918884 3.99436 1.85319 4.99007 3.29839 4.99007L3.32658 4.99017ZM7.86209 19.7264H12.1677V12.4863C12.1677 12.0992 12.1958 11.7112 12.3095 11.4348C12.6207 10.6602 13.3291 9.85837 14.5189 9.85837C16.0766 9.85837 16.7001 11.0473 16.7001 12.7906V19.7264H21.0056V12.292C21.0056 8.30947 18.8816 6.45617 16.0487 6.45617C13.7261 6.45617 12.7061 7.75546 12.1393 8.64046H12.168V6.76056H7.86229C7.91849 7.97696 7.86209 19.7264 7.86209 19.7264Z" fill="#ffffffa9"/>
</svg>
