<svg width="26" height="22" viewBox="0 0 26 22" fill="none" xmlns="http://www.w3.org/2000/svg">
<path d="M24.9131 3.4008C24.1206 3.7422 23.2874 3.9799 22.4341 4.1081C22.833 4.0396 23.42 3.3209 23.6537 3.03C24.0086 2.5912 24.2792 2.0903 24.4515 1.5527C24.4515 1.5128 24.4914 1.4557 24.4515 1.4272C24.4314 1.4162 24.4089 1.4105 24.386 1.4105C24.3631 1.4105 24.3405 1.4162 24.3204 1.4272C23.3939 1.9294 22.4078 2.3127 21.3855 2.568C21.3499 2.5789 21.3119 2.5799 21.2758 2.5708C21.2396 2.5618 21.2066 2.5431 21.1803 2.5167C21.1008 2.4218 21.0151 2.3323 20.9239 2.2486C20.5069 1.8746 20.0338 1.5686 19.5219 1.3416C18.831 1.0579 18.0846 0.934996 17.3392 0.982296C16.616 1.028 15.9099 1.2222 15.2648 1.5527C14.6296 1.9012 14.0713 2.3746 13.6235 2.9445C13.1525 3.531 12.8124 4.2118 12.6262 4.9409C12.4727 5.6344 12.4552 6.3512 12.5749 7.0513C12.5749 7.1711 12.5749 7.1882 12.4723 7.1711C8.409 6.5722 5.0751 5.1291 2.351 2.0318C2.2313 1.8949 2.1687 1.8949 2.0718 2.0318C0.886398 3.8343 1.462 6.6863 2.9437 8.0952C3.1432 8.2834 3.3483 8.4659 3.5649 8.6371C2.8855 8.5888 2.2228 8.4045 1.6159 8.0952C1.5019 8.021 1.4392 8.061 1.4335 8.1979C1.4173 8.3876 1.4173 8.5785 1.4335 8.7683C1.5524 9.6778 1.9105 10.5394 2.4713 11.265C3.032 11.9906 3.7752 12.5541 4.6249 12.898C4.832 12.9868 5.0479 13.0537 5.2689 13.0976C4.64 13.2215 3.9949 13.2408 3.3597 13.1546C3.223 13.1261 3.1717 13.2003 3.223 13.3315C4.0607 15.6131 5.8787 16.3089 7.2122 16.6968C7.3946 16.7253 7.577 16.7253 7.7821 16.771C7.7821 16.771 7.7821 16.771 7.7479 16.8052C7.3547 17.5239 5.7647 18.0087 5.0352 18.2597C3.7038 18.7384 2.2842 18.9214 0.874998 18.7959C0.652698 18.7617 0.601498 18.7674 0.544498 18.7959C0.487498 18.8244 0.544498 18.8872 0.607098 18.9442C0.892098 19.1324 1.177 19.2979 1.4734 19.4576C2.3556 19.9392 3.2883 20.3218 4.2545 20.5984C9.2581 21.9787 14.8887 20.9634 18.6443 17.2273C21.5964 14.2954 22.6336 10.2513 22.6336 6.2014C22.6336 6.0474 22.8216 5.9562 22.9299 5.8763C23.6768 5.2939 24.3352 4.606 24.8846 3.8343C24.9798 3.7192 25.0286 3.5728 25.0214 3.4236C25.0214 3.338 25.0214 3.3551 24.9131 3.4008Z" fill="#ffffffa9"/>
</svg>
