<svg width="166" height="38" viewBox="0 0 166 38" fill="none" xmlns="http://www.w3.org/2000/svg">
<g clip-path="url(#clip0_0_179)">
<path d="M5.74662 28.7259C7.28679 29.8002 9.7839 29.8002 11.3241 28.7259C12.8642 27.6516 12.8642 25.9098 11.3241 24.8355C9.7839 23.7612 7.28679 23.7612 5.74662 24.8355C4.20645 25.9098 4.20645 27.6516 5.74662 28.7259Z" fill="#A4074D"/>
<path d="M21.7322 14.1371C24.0425 15.7485 27.7881 15.7485 30.0984 14.1371C32.4086 12.5256 32.4086 9.91303 30.0984 8.3016C27.7881 6.69016 24.0425 6.69016 21.7322 8.3016C19.422 9.91303 19.422 12.5256 21.7322 14.1371Z" fill="#A4074D"/>
<path d="M13.2464 21.4315C15.1716 22.7743 18.293 22.7743 20.2182 21.4315C22.1434 20.0886 22.1434 17.9114 20.2182 16.5685C18.293 15.2257 15.1716 15.2257 13.2464 16.5685C11.3212 17.9114 11.3212 20.0886 13.2464 21.4315Z" fill="#A4074D"/>
<path d="M0.866345 20.4588C2.02147 21.2645 3.8943 21.2645 5.04943 20.4588C6.20455 19.6531 6.20455 18.3468 5.04943 17.541C3.8943 16.7353 2.02147 16.7353 0.866345 17.541C-0.288782 18.3468 -0.288781 19.6531 0.866345 20.4588Z" fill="#A4074D"/>
<path d="M13.2464 5.87008C15.1716 7.21294 18.293 7.21294 20.2182 5.87008C22.1434 4.52722 22.1434 2.35001 20.2182 1.00715C18.293 -0.335716 15.1716 -0.335717 13.2464 1.00715C11.3212 2.35001 11.3212 4.52722 13.2464 5.87008Z" fill="#A4074D"/>
<path d="M5.74662 13.1645C7.28679 14.2388 9.78389 14.2388 11.3241 13.1645C12.8642 12.0902 12.8642 10.3484 11.3241 9.2741C9.78389 8.19981 7.28679 8.19981 5.74662 9.2741C4.20645 10.3484 4.20646 12.0902 5.74662 13.1645Z" fill="#A4074D"/>
<path d="M13.2464 36.9929C15.1716 38.3357 18.293 38.3357 20.2182 36.9929C22.1434 35.65 22.1434 33.4728 20.2182 32.1299C18.293 30.7871 15.1716 30.7871 13.2464 32.1299C11.3212 33.4728 11.3212 35.65 13.2464 36.9929Z" fill="#A4074D"/>
<path d="M31.9011 21.9178C34.2114 23.5292 37.9571 23.5292 40.2673 21.9178C42.5776 20.3064 42.5776 17.6937 40.2673 16.0823C37.9571 14.4708 34.2114 14.4708 31.9011 16.0823C29.5909 17.6937 29.5909 20.3064 31.9011 21.9178Z" fill="#A4074D"/>
<path d="M21.7322 29.6983C24.0425 31.3098 27.7881 31.3098 30.0984 29.6983C32.4086 28.0869 32.4086 25.4743 30.0984 23.8628C27.7881 22.2514 24.0425 22.2514 21.7322 23.8628C19.422 25.4743 19.422 28.0869 21.7322 29.6983Z" fill="#A4074D"/>
</g>
<path d="M52.079 30V9.885H58.667C60.755 9.885 62.564 10.308 64.094 11.154C65.642 11.982 66.839 13.152 67.685 14.664C68.531 16.176 68.954 17.931 68.954 19.929C68.954 21.909 68.531 23.664 67.685 25.194C66.839 26.706 65.642 27.885 64.094 28.731C62.564 29.577 60.755 30 58.667 30H52.079ZM55.265 27.165H58.721C60.143 27.165 61.376 26.868 62.42 26.274C63.482 25.68 64.301 24.843 64.877 23.763C65.453 22.683 65.741 21.405 65.741 19.929C65.741 18.453 65.444 17.184 64.85 16.122C64.274 15.042 63.464 14.205 62.42 13.611C61.376 13.017 60.143 12.72 58.721 12.72H55.265V27.165ZM71.7947 30V15.393H74.8457V30H71.7947ZM71.7947 13.395V9.885H74.8457V13.395H71.7947ZM85.4599 35.94C84.3979 35.94 83.4169 35.769 82.5169 35.427C81.6169 35.085 80.8429 34.608 80.1949 33.996C79.5469 33.402 79.0609 32.7 78.7369 31.89L81.5449 30.729C81.7969 31.413 82.2559 31.98 82.9219 32.43C83.6059 32.88 84.4429 33.105 85.4329 33.105C86.2069 33.105 86.8999 32.952 87.5119 32.646C88.1239 32.358 88.6099 31.926 88.9699 31.35C89.3299 30.792 89.5099 30.117 89.5099 29.325V26.031L90.0499 26.652C89.5459 27.588 88.8439 28.299 87.9439 28.785C87.0619 29.271 86.0629 29.514 84.9469 29.514C83.5969 29.514 82.3819 29.199 81.3019 28.569C80.2219 27.939 79.3669 27.075 78.7369 25.977C78.1249 24.879 77.8189 23.646 77.8189 22.278C77.8189 20.892 78.1249 19.659 78.7369 18.579C79.3669 17.499 80.2129 16.644 81.2749 16.014C82.3369 15.384 83.5519 15.069 84.9199 15.069C86.0359 15.069 87.0259 15.312 87.8899 15.798C88.7719 16.266 89.4919 16.95 90.0499 17.85L89.6449 18.606V15.393H92.5339V29.325C92.5339 30.585 92.2279 31.71 91.6159 32.7C91.0219 33.708 90.1939 34.5 89.1319 35.076C88.0699 35.652 86.8459 35.94 85.4599 35.94ZM85.2979 26.679C86.1079 26.679 86.8279 26.49 87.4579 26.112C88.0879 25.716 88.5829 25.194 88.9429 24.546C89.3209 23.88 89.5099 23.133 89.5099 22.305C89.5099 21.477 89.3209 20.73 88.9429 20.064C88.5649 19.398 88.0609 18.876 87.4309 18.498C86.8009 18.102 86.0899 17.904 85.2979 17.904C84.4699 17.904 83.7319 18.102 83.0839 18.498C82.4359 18.876 81.9229 19.398 81.5449 20.064C81.1849 20.712 81.0049 21.459 81.0049 22.305C81.0049 23.115 81.1849 23.853 81.5449 24.519C81.9229 25.185 82.4359 25.716 83.0839 26.112C83.7319 26.49 84.4699 26.679 85.2979 26.679ZM96.1052 30V15.393H99.1562V30H96.1052ZM96.1052 13.395V9.885H99.1562V13.395H96.1052ZM102.723 30V9.561H105.774V30H102.723ZM116.2 30.324C114.742 30.324 113.446 29.991 112.312 29.325C111.196 28.641 110.323 27.723 109.693 26.571C109.063 25.401 108.748 24.096 108.748 22.656C108.748 21.18 109.063 19.875 109.693 18.741C110.341 17.607 111.205 16.716 112.285 16.068C113.365 15.402 114.589 15.069 115.957 15.069C117.055 15.069 118.036 15.258 118.9 15.636C119.764 16.014 120.493 16.536 121.087 17.202C121.681 17.85 122.131 18.597 122.437 19.443C122.761 20.289 122.923 21.189 122.923 22.143C122.923 22.377 122.914 22.62 122.896 22.872C122.878 23.124 122.842 23.358 122.788 23.574H111.151V21.144H121.06L119.602 22.251C119.782 21.369 119.719 20.586 119.413 19.902C119.125 19.2 118.675 18.651 118.063 18.255C117.469 17.841 116.767 17.634 115.957 17.634C115.147 17.634 114.427 17.841 113.797 18.255C113.167 18.651 112.681 19.227 112.339 19.983C111.997 20.721 111.862 21.621 111.934 22.683C111.844 23.673 111.979 24.537 112.339 25.275C112.717 26.013 113.239 26.589 113.905 27.003C114.589 27.417 115.363 27.624 116.227 27.624C117.109 27.624 117.856 27.426 118.468 27.03C119.098 26.634 119.593 26.121 119.953 25.491L122.437 26.706C122.149 27.39 121.699 28.011 121.087 28.569C120.493 29.109 119.773 29.541 118.927 29.865C118.099 30.171 117.19 30.324 116.2 30.324ZM130.142 30.324C129.152 30.324 128.279 30.153 127.523 29.811C126.785 29.451 126.209 28.965 125.795 28.353C125.381 27.723 125.174 26.985 125.174 26.139C125.174 25.347 125.345 24.636 125.687 24.006C126.047 23.376 126.596 22.845 127.334 22.413C128.072 21.981 128.999 21.675 130.115 21.495L135.191 20.658V23.061L130.709 23.844C129.899 23.988 129.305 24.249 128.927 24.627C128.549 24.987 128.36 25.455 128.36 26.031C128.36 26.589 128.567 27.048 128.981 27.408C129.413 27.75 129.962 27.921 130.628 27.921C131.456 27.921 132.176 27.741 132.788 27.381C133.418 27.021 133.904 26.544 134.246 25.95C134.588 25.338 134.759 24.663 134.759 23.925V20.172C134.759 19.452 134.489 18.867 133.949 18.417C133.427 17.949 132.725 17.715 131.843 17.715C131.033 17.715 130.322 17.931 129.71 18.363C129.116 18.777 128.675 19.317 128.387 19.983L125.849 18.714C126.119 17.994 126.56 17.364 127.172 16.824C127.784 16.266 128.495 15.834 129.305 15.528C130.133 15.222 131.006 15.069 131.924 15.069C133.076 15.069 134.093 15.285 134.975 15.717C135.875 16.149 136.568 16.752 137.054 17.526C137.558 18.282 137.81 19.164 137.81 20.172V30H134.894V27.354L135.515 27.435C135.173 28.029 134.732 28.542 134.192 28.974C133.67 29.406 133.067 29.739 132.383 29.973C131.717 30.207 130.97 30.324 130.142 30.324ZM141.378 30V15.393H144.294V18.336L144.024 17.904C144.348 16.95 144.87 16.266 145.59 15.852C146.31 15.42 147.174 15.204 148.182 15.204H149.073V17.985H147.804C146.796 17.985 145.977 18.3 145.347 18.93C144.735 19.542 144.429 20.424 144.429 21.576V30H141.378ZM151.16 30V15.393H154.076V18.255L153.725 17.877C154.085 16.959 154.661 16.266 155.453 15.798C156.245 15.312 157.163 15.069 158.207 15.069C159.287 15.069 160.241 15.303 161.069 15.771C161.897 16.239 162.545 16.887 163.013 17.715C163.481 18.543 163.715 19.497 163.715 20.577V30H160.691V21.387C160.691 20.649 160.556 20.028 160.286 19.524C160.016 19.002 159.629 18.606 159.125 18.336C158.639 18.048 158.081 17.904 157.451 17.904C156.821 17.904 156.254 18.048 155.75 18.336C155.264 18.606 154.886 19.002 154.616 19.524C154.346 20.046 154.211 20.667 154.211 21.387V30H151.16Z" fill="white"/>
<defs>
<clipPath id="clip0_0_179">
<rect width="42" height="38" fill="white"/>
</clipPath>
</defs>
</svg>
