<svg width="42" height="38" viewBox="0 0 42 38" fill="none" xmlns="http://www.w3.org/2000/svg">
<g clip-path="url(#clip0_0_9)">
<path d="M5.74662 28.7259C7.28679 29.8002 9.7839 29.8002 11.3241 28.7259C12.8642 27.6516 12.8642 25.9098 11.3241 24.8355C9.7839 23.7612 7.28679 23.7612 5.74662 24.8355C4.20645 25.9098 4.20645 27.6516 5.74662 28.7259Z" fill="#A4074D"/>
<path d="M21.7322 14.1371C24.0425 15.7485 27.7881 15.7485 30.0984 14.1371C32.4086 12.5256 32.4086 9.91303 30.0984 8.3016C27.7881 6.69016 24.0425 6.69016 21.7322 8.3016C19.422 9.91303 19.422 12.5256 21.7322 14.1371Z" fill="#A4074D"/>
<path d="M13.2464 21.4315C15.1716 22.7743 18.293 22.7743 20.2182 21.4315C22.1434 20.0886 22.1434 17.9114 20.2182 16.5685C18.293 15.2257 15.1716 15.2257 13.2464 16.5685C11.3212 17.9114 11.3212 20.0886 13.2464 21.4315Z" fill="#A4074D"/>
<path d="M0.866345 20.4588C2.02147 21.2645 3.8943 21.2645 5.04943 20.4588C6.20455 19.6531 6.20455 18.3468 5.04943 17.541C3.8943 16.7353 2.02147 16.7353 0.866345 17.541C-0.288782 18.3468 -0.288781 19.6531 0.866345 20.4588Z" fill="#A4074D"/>
<path d="M13.2464 5.87008C15.1716 7.21294 18.293 7.21294 20.2182 5.87008C22.1434 4.52722 22.1434 2.35001 20.2182 1.00715C18.293 -0.335716 15.1716 -0.335717 13.2464 1.00715C11.3212 2.35001 11.3212 4.52722 13.2464 5.87008Z" fill="#A4074D"/>
<path d="M5.74662 13.1645C7.28679 14.2388 9.78389 14.2388 11.3241 13.1645C12.8642 12.0902 12.8642 10.3484 11.3241 9.2741C9.78389 8.19981 7.28679 8.19981 5.74662 9.2741C4.20645 10.3484 4.20646 12.0902 5.74662 13.1645Z" fill="#A4074D"/>
<path d="M13.2464 36.9929C15.1716 38.3357 18.293 38.3357 20.2182 36.9929C22.1434 35.65 22.1434 33.4728 20.2182 32.1299C18.293 30.7871 15.1716 30.7871 13.2464 32.1299C11.3212 33.4728 11.3212 35.65 13.2464 36.9929Z" fill="#A4074D"/>
<path d="M31.9011 21.9178C34.2114 23.5292 37.9571 23.5292 40.2673 21.9178C42.5776 20.3064 42.5776 17.6937 40.2673 16.0823C37.9571 14.4708 34.2114 14.4708 31.9011 16.0823C29.5909 17.6937 29.5909 20.3064 31.9011 21.9178Z" fill="#A4074D"/>
<path d="M21.7322 29.6983C24.0425 31.3098 27.7881 31.3098 30.0984 29.6983C32.4086 28.0869 32.4086 25.4743 30.0984 23.8628C27.7881 22.2514 24.0425 22.2514 21.7322 23.8628C19.422 25.4743 19.422 28.0869 21.7322 29.6983Z" fill="#A4074D"/>
</g>
<defs>
<clipPath id="clip0_0_9">
<rect width="42" height="38" fill="white"/>
</clipPath>
</defs>
</svg>
